#!OML:ASF I:\salsa\salsa 7_09\Patient 1\Session 1\dancermale.ASF
:FULLY-SPECIFIED
:DEGREES
1472
root 6.16198 16.7858 -0.506504 0.227944 296.431 -713.903
lowerback -0.00747202 -0.227749 2.15464
upperback 0.703429 -0.311435 -2.99479
thorax 0.698501 -0.140173 -4.29516
lowerneck -6.91475 4.51792 2.50165
upperneck 15.0365 6.46768 -4.96149
head 5.92798 2.87509 -1.508
rclavicle 2.49475e-014 -1.59028e-015
rhumerus 6.6466 22.4707 -70.2876
rradius 58.0895
rwrist -38.843
rhand 31.6633 8.78403
rfingers 7.12502
rthumb 55.1958 -9.21209
lclavicle 2.49475e-014 -1.59028e-015
lhumerus 5.05743 14.5085 90.3877
lradius 53.1296
lwrist 64.3986
lhand -16.0869 42.6551
lfingers 7.12502
lthumb 10.1163 72.3919
rfemur -24.9493 -6.13278 13.9097
rtibia 48.7753
rfoot -22.9752 -12.6402
rtoes -4.11866
lfemur -33.6022 5.50187 -26.7971
ltibia 23.8832
lfoot 0.238161 -8.72593
ltoes -7.84717
1473
root 6.26902 16.8139 -0.560568 1.60159 298.245 -714.681
lowerback -0.227566 -0.615548 3.09487
upperback 0.594307 -0.837398 -3.23536
thorax 0.646341 -0.400991 -5.08525
lowerneck -6.8259 4.36675 2.32943
upperneck 14.5858 6.23379 -4.71516
head 5.74872 2.78246 -1.42511
rclavicle 3.45388e-014 -1.55052e-014
rhumerus 7.14494 23.4263 -69.4488
rradius 58.369
rwrist -39.0628
rhand 32.265 9.34429
rfingers 7.12502
rthumb 55.731 -8.25211
lclavicle 3.45388e-014 -1.55052e-014
lhumerus 2.21741 13.8481 90.4133
lradius 54.4087
lwrist 66.0287
lhand -16.5856 43.2018
lfingers 7.12502
lthumb 9.6352 72.9615
rfemur -24.3872 -7.54959 14.4083
rtibia 46.1017
rfoot -23.9647 -14.2717
rtoes -2.60963
lfemur -34.3233 5.03134 -26.6672
ltibia 22.9364
lfoot 0.743083 -9.59945
ltoes -12.3124
1474
root 6.3757 16.8408 -0.6204 2.83992 299.847 -715.354
lowerback -0.360845 -0.947682 3.88725
upperback 0.458517 -1.29006 -3.42822
thorax 0.510004 -0.63063 -5.74281
lowerneck -6.92827 4.26604 2.33503
upperneck 14.6413 6.03341 -4.27404
head 5.76254 2.71575 -1.3004
rclavicle -2.57426e-014 -1.43125e-014
rhumerus 7.7259 24.8357 -68.2692
rradius 59.1375
rwrist -39.6013
rhand 32.6053 7.97986
rfingers 7.12502
rthumb 56.0327 -9.38451
lclavicle -2.57426e-014 -1.43125e-014
lhumerus -0.780458 13.3994 90.4585
lradius 55.9329
lwrist 67.8847
lhand -16.9679 43.535
lfingers 7.12502
lthumb 9.26628 73.3114
rfemur -23.9479 -8.5574 14.8862
rtibia 43.5917
rfoot -24.111 -15.9771
rtoes -3.06757
lfemur -35.1718 4.81978 -26.4016
ltibia 22.4837
lfoot 0.343259 -10.8124
ltoes -18.3257
1475
root 6.49193 16.8586 -0.676615 4.01575 301.172 -715.889
lowerback -0.43343 -1.17886 4.61278
upperback 0.25031 -1.60737 -3.58872
thorax 0.271226 -0.800097 -6.32718
lowerneck -6.91093 4.1245 2.40373
upperneck 14.3911 5.79911 -4.08039
head 5.6692 2.62569 -1.27025
rclavicle 1.87852e-014 -4.21423e-014
rhumerus 7.91274 25.9807 -67.2981
rradius 60.0743
rwrist -40.0097
rhand 34.3394 6.09599
rfingers 7.12502
rthumb 57.5602 -10.0135
lclavicle 1.87852e-014 -4.21423e-014
lhumerus -3.88011 13.1444 90.5283
lradius 57.6658
lwrist 69.5774
lhand -17.1861 44.0309
lfingers 7.12502
lthumb 9.05574 73.8165
rfemur -23.8679 -9.04461 15.2104
rtibia 41.4856
rfoot -23.3953 -17.1106
rtoes -3.4716
lfemur -36.4205 4.81959 -26.1779
ltibia 22.8578
lfoot -1.05094 -12.3365
ltoes -24.0678
1476
root 6.61464 16.8709 -0.726804 4.79864 302.3 -716.156
lowerback -0.41685 -1.38126 5.13519
upperback 0.14977 -1.88154 -3.70471
thorax 0.0980022 -0.946019 -6.7478
lowerneck -6.75203 3.99417 2.63774
upperneck 13.8743 5.5766 -4.03048
head 5.47816 2.5456 -1.3151
rclavicle -8.33902e-014 -4.77083e-015
rhumerus 8.36783 27.3568 -66.003
rradius 61.0367
rwrist -41.1643
rhand 35.4373 5.1966
rfingers 7.12502
rthumb 58.5175 -10.0512
lclavicle -8.33902e-014 -4.77083e-015
lhumerus -6.73758 13.1158 90.6222
lradius 59.5002
lwrist 70.8703
lhand -17.3123 44.7331
lfingers 7.12502
lthumb 8.93401 74.524
rfemur -24.3956 -9.61051 15.3147
rtibia 40.7217
rfoot -22.7803 -17.5143
rtoes -2.96342
lfemur -37.5911 4.52859 -25.8276
ltibia 24.8763
lfoot -3.922 -12.3016
ltoes -24.9737
1477
root 6.72611 16.8729 -0.764053 5.19416 302.892 -716.113
lowerback -0.624402 -1.46377 5.2445
upperback 0.210628 -2.00107 -3.75026
thorax 0.253695 -0.99907 -6.86604
lowerneck -6.7852 3.94439 2.73029
upperneck 13.4837 5.46686 -3.86302
head 5.35641 2.5155 -1.28734
rclavicle -9.30312e-014 1.19271e-014
rhumerus 9.13176 28.9856 -64.3117
rradius 61.8931
rwrist -42.6508
rhand 35.7906 4.97294
rfingers 7.12502
rthumb 58.8237 -9.9856
lclavicle -9.30312e-014 1.19271e-014
lhumerus -9.11631 13.5179 90.7364
lradius 61.1732
lwrist 71.5196
lhand -17.0478 45.6163
lfingers 7.12502
lthumb 9.1892 75.3961
rfemur -25.8382 -10.2491 15.2691
rtibia 41.7095
rfoot -22.8325 -17.5879
rtoes -2.96345
lfemur -38.5931 4.21305 -25.3857
ltibia 28.3787
lfoot -8.54169 -9.10634
ltoes -23.4796
1478
root 6.83241 16.8728 -0.802102 5.17739 303.382 -715.821
lowerback -0.633917 -1.52646 5.07335
upperback 0.293837 -2.0848 -3.83839
thorax 0.334689 -1.03702 -6.86267
lowerneck -6.71952 3.86244 3.03986
upperneck 13.0274 5.31234 -3.86981
head 5.20683 2.46355 -1.35435
rclavicle 7.39479e-014 2.94201e-014
rhumerus 10.1052 30.1076 -63.0053
rradius 62.7339
rwrist -42.5578
rhand 37.5563 3.87561
rfingers 7.12502
rthumb 60.3404 -9.54228
lclavicle 7.39479e-014 2.94201e-014
lhumerus -11.2592 13.798 90.6717
lradius 62.6159
lwrist 72.1633
lhand -17.1616 46.4127
lfingers 7.12502
lthumb 9.07943 76.1973
rfemur -26.7894 -10.8298 15.0598
rtibia 42.2824
rfoot -22.7386 -17.6691
rtoes -3.11578
lfemur -39.3455 3.69124 -24.7414
ltibia 33.1109
lfoot -11.4737 -5.20849
ltoes -22.1225
